<svg width="17" height="20" viewBox="0 0 17 20" fill="none" xmlns="http://www.w3.org/2000/svg">
<path fill-rule="evenodd" clip-rule="evenodd" d="M9.49961 1.02836C9.49987 1.01894 9.5 1.00949 9.5 1C9.5 0.447715 9.05229 0 8.5 0C7.94772 0 7.5 0.447715 7.5 1C7.5 1.00949 7.50013 1.01894 7.50039 1.02836C4.62012 1.30837 2.31215 3.62989 2.10196 6.57252L1.5 15C0.947715 15 0.5 15.4477 0.5 16C0.5 16.5523 0.947715 17 1.5 17H15.5C16.0523 17 16.5 16.5523 16.5 16C16.5 15.4477 16.0523 15 15.5 15L14.898 6.57252C14.6878 3.62989 12.3799 1.30837 9.49961 1.02836ZM13.4949 15L12.9031 6.71501C12.7536 4.62179 11.0118 3 8.91328 3H8.08672C5.98816 3 4.2464 4.62179 4.09688 6.71501L3.5051 15H13.4949Z" fill="#282828"/>
<path d="M10.5 18C10.5 19.1046 9.60457 20 8.5 20C7.39543 20 6.5 19.1046 6.5 18H10.5Z" fill="#282828"/>
</svg>
