<svg width="20" height="20" viewBox="0 0 20 20" fill="none" xmlns="http://www.w3.org/2000/svg">
<mask id="mask0_1999_1808" style="mask-type:alpha" maskUnits="userSpaceOnUse" x="0" y="0" width="20" height="20">
<rect width="20" height="20" fill="#6B7280"/>
</mask>
<g mask="url(#mask0_1999_1808)">
<path d="M10 11.2292L5.97918 15.25C5.81251 15.4167 5.61112 15.4965 5.37501 15.4896C5.1389 15.4826 4.93751 15.3958 4.77084 15.2292C4.60418 15.0625 4.52084 14.8576 4.52084 14.6146C4.52084 14.3715 4.60418 14.1667 4.77084 14L8.77084 10L4.75001 5.97917C4.58334 5.8125 4.50348 5.60764 4.51043 5.36458C4.51737 5.12153 4.60418 4.91667 4.77084 4.75C4.93751 4.58333 5.14237 4.5 5.38543 4.5C5.62848 4.5 5.83334 4.58333 6.00001 4.75L10 8.77083L14.0208 4.75C14.1875 4.58333 14.3924 4.5 14.6354 4.5C14.8785 4.5 15.0833 4.58333 15.25 4.75C15.4167 4.91667 15.5 5.12153 15.5 5.36458C15.5 5.60764 15.4167 5.8125 15.25 5.97917L11.2292 10L15.25 14.0208C15.4167 14.1875 15.5 14.3889 15.5 14.625C15.5 14.8611 15.4167 15.0625 15.25 15.2292C15.0833 15.3958 14.8785 15.4792 14.6354 15.4792C14.3924 15.4792 14.1875 15.3958 14.0208 15.2292L10 11.2292Z" fill="#6B7280"/>
</g>
</svg>
