<svg width="24" height="24" viewBox="0 0 24 24" fill="none" xmlns="http://www.w3.org/2000/svg">
<path fill-rule="evenodd" clip-rule="evenodd" d="M12.8321 4.34667C12.4362 3.75293 11.5638 3.75293 11.168 4.34667L8.5547 8.26654C8.24835 8.72607 7.62748 8.85024 7.16795 8.54389L4.00875 6.43776C3.26747 5.94357 2.29875 6.59232 2.47347 7.46592L3.83923 16.2947C3.93271 16.7621 4.34313 17.0986 4.81981 17.0986H19.1802C19.6569 17.0986 20.0673 16.7621 20.1608 16.2947L21.5265 7.46592C21.7013 6.59232 20.7325 5.94357 19.9913 6.43776L16.8321 8.54389C16.3725 8.85024 15.7517 8.72607 15.4453 8.26654L12.8321 4.34667ZM4.99966 18.0986C4.44738 18.0986 3.99966 18.5463 3.99966 19.0986C3.99966 19.6509 4.44738 20.0986 4.99966 20.0986H18.9997C19.5519 20.0986 19.9997 19.6509 19.9997 19.0986C19.9997 18.5463 19.5519 18.0986 18.9997 18.0986H4.99966Z" fill="#FFF0DE"/>
</svg>
