<svg width="41" height="41" viewBox="0 0 41 41" fill="none" xmlns="http://www.w3.org/2000/svg">
<mask id="mask0_2607_6915" style="mask-type:alpha" maskUnits="userSpaceOnUse" x="8" y="8" width="25" height="25">
<rect x="8.5" y="8.25452" width="24" height="24" fill="#D9D9D9"/>
</mask>
<g mask="url(#mask0_2607_6915)">
<path d="M16.6 23.0045C16.8333 23.8045 17.1958 24.4503 17.6875 24.942C18.1792 25.4337 18.8167 25.7712 19.6 25.9545V26.3795C19.6 26.6129 19.6875 26.817 19.8625 26.992C20.0375 27.167 20.2417 27.2545 20.475 27.2545C20.7083 27.2545 20.9125 27.167 21.0875 26.992C21.2625 26.817 21.35 26.6129 21.35 26.3795V26.0045C22.1833 25.8545 22.9 25.5295 23.5 25.0295C24.1 24.5295 24.4 23.7879 24.4 22.8045C24.4 22.1045 24.2 21.4628 23.8 20.8795C23.4 20.2962 22.6 19.7879 21.4 19.3545C20.4 19.0212 19.7083 18.7295 19.325 18.4795C18.9417 18.2295 18.75 17.8879 18.75 17.4545C18.75 17.0212 18.9042 16.6795 19.2125 16.4295C19.5208 16.1795 19.9667 16.0545 20.55 16.0545C21.0833 16.0545 21.5 16.1837 21.8 16.442C22.1 16.7003 22.3167 17.0212 22.45 17.4045L24.05 16.7545C23.8667 16.1712 23.5292 15.6628 23.0375 15.2295C22.5458 14.7962 22 14.5545 21.4 14.5045V14.1295C21.4 13.8962 21.3125 13.692 21.1375 13.517C20.9625 13.342 20.7583 13.2545 20.525 13.2545C20.2917 13.2545 20.0875 13.342 19.9125 13.517C19.7375 13.692 19.65 13.8962 19.65 14.1295V14.5045C18.8167 14.6878 18.1667 15.0545 17.7 15.6045C17.2333 16.1545 17 16.7712 17 17.4545C17 18.2379 17.2292 18.8712 17.6875 19.3545C18.1458 19.8379 18.8667 20.2545 19.85 20.6045C20.9 20.9879 21.6292 21.3295 22.0375 21.6295C22.4458 21.9295 22.65 22.3212 22.65 22.8045C22.65 23.3545 22.4542 23.7587 22.0625 24.017C21.6708 24.2753 21.2 24.4045 20.65 24.4045C20.1 24.4045 19.6125 24.2337 19.1875 23.892C18.7625 23.5504 18.45 23.0379 18.25 22.3545L16.6 23.0045ZM20.5 30.2545C19.1167 30.2545 17.8167 29.992 16.6 29.467C15.3833 28.942 14.325 28.2295 13.425 27.3295C12.525 26.4295 11.8125 25.3712 11.2875 24.1545C10.7625 22.9379 10.5 21.6378 10.5 20.2545C10.5 18.8712 10.7625 17.5712 11.2875 16.3545C11.8125 15.1378 12.525 14.0795 13.425 13.1795C14.325 12.2795 15.3833 11.567 16.6 11.042C17.8167 10.517 19.1167 10.2545 20.5 10.2545C21.8833 10.2545 23.1833 10.517 24.4 11.042C25.6167 11.567 26.675 12.2795 27.575 13.1795C28.475 14.0795 29.1875 15.1378 29.7125 16.3545C30.2375 17.5712 30.5 18.8712 30.5 20.2545C30.5 21.6378 30.2375 22.9379 29.7125 24.1545C29.1875 25.3712 28.475 26.4295 27.575 27.3295C26.675 28.2295 25.6167 28.942 24.4 29.467C23.1833 29.992 21.8833 30.2545 20.5 30.2545ZM20.5 28.2545C22.7333 28.2545 24.625 27.4795 26.175 25.9295C27.725 24.3795 28.5 22.4879 28.5 20.2545C28.5 18.0212 27.725 16.1295 26.175 14.5795C24.625 13.0295 22.7333 12.2545 20.5 12.2545C18.2667 12.2545 16.375 13.0295 14.825 14.5795C13.275 16.1295 12.5 18.0212 12.5 20.2545C12.5 22.4879 13.275 24.3795 14.825 25.9295C16.375 27.4795 18.2667 28.2545 20.5 28.2545Z" fill="#1C1B1F"/>
</g>
</svg>
