<svg width="20" height="20" viewBox="0 0 20 20" fill="none" xmlns="http://www.w3.org/2000/svg">
<path fill-rule="evenodd" clip-rule="evenodd" d="M4.53132 5.5077L4.2677 5.24408C3.94226 4.91864 3.94226 4.39101 4.2677 4.06557C4.59314 3.74013 5.12078 3.74013 5.44621 4.06557L16.0528 14.6722C16.3783 14.9976 16.3783 15.5252 16.0528 15.8507C15.7274 16.1761 15.1997 16.1761 14.8743 15.8507L14.3171 15.2935C13.0481 16.031 11.5734 16.4533 9.99996 16.4533C5.99069 16.4533 2.62181 13.7111 1.66663 9.99995C2.127 8.21125 3.14808 6.64766 4.53132 5.5077ZM13.0871 14.0635C12.1571 14.5264 11.1087 14.7866 9.99996 14.7866C6.92095 14.7866 4.30687 12.7794 3.40167 9.99995C3.83186 8.67902 4.64802 7.53251 5.71661 6.69299L7.20559 8.18197C6.86472 8.70483 6.66663 9.32927 6.66663 9.99998C6.66663 11.8409 8.15901 13.3333 9.99996 13.3333C10.6707 13.3333 11.2951 13.1352 11.818 12.7944L13.0871 14.0635ZM10.5848 11.5612L8.43878 9.41516C8.37059 9.59713 8.33329 9.7942 8.33329 9.99998C8.33329 10.9205 9.07948 11.6666 9.99996 11.6666C10.2057 11.6666 10.4028 11.6294 10.5848 11.5612ZM10.432 6.69439L13.3055 9.56793C13.112 8.07252 11.9274 6.88793 10.432 6.69439ZM16.5983 9.99995C16.3749 10.6856 16.0477 11.3243 15.635 11.8974L16.8258 13.0882C17.521 12.1839 18.0405 11.1374 18.3333 9.99995C17.3781 6.28877 14.0092 3.54663 9.99996 3.54663C9.17365 3.54663 8.37454 3.66311 7.61816 3.88054L9.01967 5.28205C9.33996 5.23673 9.66724 5.2133 9.99996 5.2133C13.079 5.2133 15.693 7.22047 16.5983 9.99995Z" fill="#282828"/>
</svg>
