<svg width="21" height="20" viewBox="0 0 21 20" fill="none" xmlns="http://www.w3.org/2000/svg">
<path d="M10.5 20L9.5 17H2.5C1.95 17 1.47917 16.8042 1.0875 16.4125C0.695833 16.0208 0.5 15.55 0.5 15V2C0.5 1.45 0.695833 0.979167 1.0875 0.5875C1.47917 0.195833 1.95 0 2.5 0H8.5L9.375 3H18.5C19.0833 3 19.5625 3.1875 19.9375 3.5625C20.3125 3.9375 20.5 4.41667 20.5 5V18C20.5 18.55 20.3125 19.0208 19.9375 19.4125C19.5625 19.8042 19.0833 20 18.5 20H10.5ZM5.65 12.6C6.8 12.6 7.74583 12.2292 8.4875 11.4875C9.22917 10.7458 9.6 9.78333 9.6 8.6C9.6 8.46667 9.59583 8.34583 9.5875 8.2375C9.57917 8.12917 9.55833 8.01667 9.525 7.9H5.575V9.45H7.8C7.66667 9.91667 7.4125 10.2792 7.0375 10.5375C6.6625 10.7958 6.20833 10.925 5.675 10.925C5.025 10.925 4.46667 10.6917 4 10.225C3.53333 9.75833 3.3 9.18333 3.3 8.5C3.3 7.81667 3.53333 7.24167 4 6.775C4.46667 6.30833 5.025 6.075 5.675 6.075C5.975 6.075 6.25833 6.12917 6.525 6.2375C6.79167 6.34583 7.03333 6.50833 7.25 6.725L8.475 5.55C8.125 5.18333 7.70417 4.9 7.2125 4.7C6.72083 4.5 6.2 4.4 5.65 4.4C4.53333 4.4 3.57917 4.79583 2.7875 5.5875C1.99583 6.37917 1.6 7.35 1.6 8.5C1.6 9.65 1.99583 10.6208 2.7875 11.4125C3.57917 12.2042 4.53333 12.6 5.65 12.6ZM12.35 13.1L12.9 12.575C12.6667 12.2917 12.4542 12.0167 12.2625 11.75C12.0708 11.4833 11.8833 11.2 11.7 10.9L12.35 13.1ZM13.6 11.825C14.0667 11.275 14.4208 10.75 14.6625 10.25C14.9042 9.75 15.0667 9.35833 15.15 9.075H11.175L11.475 10.125H12.475C12.6083 10.375 12.7667 10.6458 12.95 10.9375C13.1333 11.2292 13.35 11.525 13.6 11.825ZM11.5 19H18.5C18.8 19 19.0417 18.9042 19.225 18.7125C19.4083 18.5208 19.5 18.2833 19.5 18V5C19.5 4.7 19.4083 4.45833 19.225 4.275C19.0417 4.09167 18.8 4 18.5 4H9.675L10.85 8.05H12.825V7H13.85V8.05H17.5V9.075H16.225C16.0583 9.70833 15.8083 10.325 15.475 10.925C15.1417 11.525 14.75 12.0833 14.3 12.6L17.025 15.275L16.3 16L13.6 13.3L12.7 14.225L13.5 17L11.5 19Z" fill="#1C1B1F"/>
</svg>
