<svg width="20" height="20" viewBox="0 0 20 20" fill="none" xmlns="http://www.w3.org/2000/svg">
<path fill-rule="evenodd" clip-rule="evenodd" d="M3.40167 10.0002C4.30687 12.7797 6.92095 14.7868 9.99996 14.7868C13.079 14.7868 15.693 12.7797 16.5983 10.0002C15.693 7.22071 13.079 5.21354 9.99996 5.21354C6.92095 5.21354 4.30687 7.22071 3.40167 10.0002ZM18.3333 10.0002C17.3781 6.28901 14.0092 3.54688 9.99996 3.54688C5.99069 3.54688 2.62181 6.28901 1.66663 10.0002C2.62181 13.7114 5.99069 16.4535 9.99996 16.4535C14.0092 16.4535 17.3781 13.7114 18.3333 10.0002Z" fill="#282828"/>
<path fill-rule="evenodd" clip-rule="evenodd" d="M9.99996 11.6667C10.9204 11.6667 11.6666 10.9206 11.6666 10.0001C11.6666 9.07961 10.9204 8.33341 9.99996 8.33341C9.07948 8.33341 8.33329 9.07961 8.33329 10.0001C8.33329 10.9206 9.07948 11.6667 9.99996 11.6667ZM9.99996 13.3334C11.8409 13.3334 13.3333 11.841 13.3333 10.0001C13.3333 8.15913 11.8409 6.66675 9.99996 6.66675C8.15901 6.66675 6.66663 8.15913 6.66663 10.0001C6.66663 11.841 8.15901 13.3334 9.99996 13.3334Z" fill="#282828"/>
</svg>
