<svg width="41" height="41" viewBox="0 0 41 41" fill="none" xmlns="http://www.w3.org/2000/svg">
<mask id="mask0_2607_6923" style="mask-type:alpha" maskUnits="userSpaceOnUse" x="8" y="8" width="25" height="25">
<rect x="8.5" y="8.25452" width="24" height="24" fill="#D9D9D9"/>
</mask>
<g mask="url(#mask0_2607_6923)">
<path d="M9.5 26.2545C9.21667 26.2545 8.97917 26.1587 8.7875 25.967C8.59583 25.7754 8.5 25.5379 8.5 25.2545V24.6795C8.5 23.9462 8.86667 23.3587 9.6 22.917C10.3333 22.4754 11.3 22.2545 12.5 22.2545C12.7167 22.2545 12.9208 22.2629 13.1125 22.2795C13.3042 22.2962 13.4917 22.3212 13.675 22.3545C13.4417 22.6878 13.2708 23.0462 13.1625 23.4295C13.0542 23.8128 13 24.2212 13 24.6545V26.2545H9.5ZM15.5 26.2545C15.2167 26.2545 14.9792 26.1587 14.7875 25.967C14.5958 25.7754 14.5 25.5379 14.5 25.2545V24.6545C14.5 23.5712 15.0542 22.692 16.1625 22.017C17.2708 21.342 18.7167 21.0045 20.5 21.0045C22.3 21.0045 23.75 21.342 24.85 22.017C25.95 22.692 26.5 23.5712 26.5 24.6545V25.2545C26.5 25.5379 26.4042 25.7754 26.2125 25.967C26.0208 26.1587 25.7833 26.2545 25.5 26.2545H15.5ZM28 26.2545V24.6545C28 24.2212 27.9417 23.8128 27.825 23.4295C27.7083 23.0462 27.5417 22.6878 27.325 22.3545C27.5083 22.3212 27.6958 22.2962 27.8875 22.2795C28.0792 22.2629 28.2833 22.2545 28.5 22.2545C29.7 22.2545 30.6667 22.4754 31.4 22.917C32.1333 23.3587 32.5 23.9462 32.5 24.6795V25.2545C32.5 25.5379 32.4042 25.7754 32.2125 25.967C32.0208 26.1587 31.7833 26.2545 31.5 26.2545H28ZM20.5 23.0045C19.55 23.0045 18.7 23.1337 17.95 23.392C17.2 23.6503 16.7583 23.9378 16.625 24.2545H24.375C24.225 23.9212 23.7792 23.6295 23.0375 23.3795C22.2958 23.1295 21.45 23.0045 20.5 23.0045ZM12.5 21.2545C11.95 21.2545 11.4792 21.0587 11.0875 20.667C10.6958 20.2753 10.5 19.8045 10.5 19.2545C10.5 18.7045 10.6958 18.2337 11.0875 17.842C11.4792 17.4504 11.95 17.2545 12.5 17.2545C13.05 17.2545 13.5208 17.4504 13.9125 17.842C14.3042 18.2337 14.5 18.7045 14.5 19.2545C14.5 19.8045 14.3042 20.2753 13.9125 20.667C13.5208 21.0587 13.05 21.2545 12.5 21.2545ZM28.5 21.2545C27.95 21.2545 27.4792 21.0587 27.0875 20.667C26.6958 20.2753 26.5 19.8045 26.5 19.2545C26.5 18.7045 26.6958 18.2337 27.0875 17.842C27.4792 17.4504 27.95 17.2545 28.5 17.2545C29.05 17.2545 29.5208 17.4504 29.9125 17.842C30.3042 18.2337 30.5 18.7045 30.5 19.2545C30.5 19.8045 30.3042 20.2753 29.9125 20.667C29.5208 21.0587 29.05 21.2545 28.5 21.2545ZM20.5 20.2545C19.6667 20.2545 18.9583 19.9629 18.375 19.3795C17.7917 18.7962 17.5 18.0878 17.5 17.2545C17.5 16.4212 17.7917 15.7128 18.375 15.1295C18.9583 14.5462 19.6667 14.2545 20.5 14.2545C21.3333 14.2545 22.0417 14.5462 22.625 15.1295C23.2083 15.7128 23.5 16.4212 23.5 17.2545C23.5 18.0878 23.2083 18.7962 22.625 19.3795C22.0417 19.9629 21.3333 20.2545 20.5 20.2545ZM20.5 16.2545C20.2167 16.2545 19.9792 16.3504 19.7875 16.542C19.5958 16.7337 19.5 16.9712 19.5 17.2545C19.5 17.5378 19.5958 17.7754 19.7875 17.967C19.9792 18.1587 20.2167 18.2545 20.5 18.2545C20.7833 18.2545 21.0208 18.1587 21.2125 17.967C21.4042 17.7754 21.5 17.5378 21.5 17.2545C21.5 16.9712 21.4042 16.7337 21.2125 16.542C21.0208 16.3504 20.7833 16.2545 20.5 16.2545Z" fill="#1C1B1F"/>
</g>
</svg>
