<svg width="41" height="41" viewBox="0 0 41 41" fill="none" xmlns="http://www.w3.org/2000/svg">
<mask id="mask0_1088_34" style="mask-type:alpha" maskUnits="userSpaceOnUse" x="0" y="0" width="41" height="41">
<rect x="0.5" y="0.254517" width="40" height="40" fill="#D9D9D9"/>
</mask>
<g mask="url(#mask0_1088_34)">
<path d="M37.1667 10.2545V30.2545C37.1667 31.1712 36.8403 31.9559 36.1875 32.6087C35.5347 33.2615 34.75 33.5879 33.8333 33.5879H7.16667C6.25 33.5879 5.46528 33.2615 4.8125 32.6087C4.15972 31.9559 3.83333 31.1712 3.83333 30.2545V10.2545C3.83333 9.33787 4.15972 8.55315 4.8125 7.90037C5.46528 7.24759 6.25 6.9212 7.16667 6.9212H33.8333C34.75 6.9212 35.5347 7.24759 36.1875 7.90037C36.8403 8.55315 37.1667 9.33787 37.1667 10.2545ZM7.16667 13.5879H33.8333V10.2545H7.16667V13.5879ZM7.16667 20.2545V30.2545H33.8333V20.2545H7.16667Z" fill="#1C1B1F"/>
</g>
</svg>
