<svg width="21" height="20" viewBox="0 0 21 20" fill="none" xmlns="http://www.w3.org/2000/svg">
<path fill-rule="evenodd" clip-rule="evenodd" d="M15.5 2H5.5V4H15.5V2ZM3.5 2V4H2.5C1.39543 4 0.5 4.89543 0.5 6V15C0.5 16.1046 1.39543 17 2.5 17H3.5V18C3.5 19.1046 4.39543 20 5.5 20H15.5C16.6046 20 17.5 19.1046 17.5 18V17H18.5C19.6046 17 20.5 16.1046 20.5 15V6C20.5 4.89543 19.6046 4 18.5 4H17.5V2C17.5 0.895431 16.6046 0 15.5 0H5.5C4.39543 0 3.5 0.89543 3.5 2ZM17.5 15H18.5V6H17.5H3.5H2.5V15H3.5V10H17.5V15ZM5.5 12H15.5V18H5.5V12Z" fill="#282828"/>
</svg>
