<svg width="23" height="24" viewBox="0 0 23 24" fill="none" xmlns="http://www.w3.org/2000/svg">
<path d="M19.52 8.69V3.98H14.82L11.48 0.67L8.19004 3.98H3.48004V8.69L0.170044 11.98L3.48004 15.32V20.02H8.19004L11.48 23.33L14.82 20.02H19.52V15.32L22.83 11.98L19.52 8.69ZM8.31004 7.03C9.29004 7.03 10.08 7.82 10.08 8.81C10.08 9.27943 9.89356 9.72964 9.56162 10.0616C9.22968 10.3935 8.77948 10.58 8.31004 10.58C7.32004 10.58 6.53004 9.79 6.53004 8.81C6.53004 7.82 7.32004 7.03 8.31004 7.03ZM14.7 16.98C13.72 16.98 12.93 16.18 12.93 15.2C12.93 14.7306 13.1165 14.2804 13.4485 13.9484C13.7804 13.6165 14.2306 13.43 14.7 13.43C15.68 13.43 16.48 14.22 16.48 15.2C16.48 15.6721 16.2925 16.1248 15.9587 16.4586C15.6249 16.7925 15.1721 16.98 14.7 16.98ZM7.98004 17.01L6.48004 15.51L15.01 6.98L16.51 8.48L7.98004 17.01Z" fill="black"/>
</svg>
