<svg width="41" height="41" viewBox="0 0 41 41" fill="none" xmlns="http://www.w3.org/2000/svg">
<mask id="mask0_2607_6942" style="mask-type:alpha" maskUnits="userSpaceOnUse" x="8" y="8" width="25" height="25">
<rect x="8.5" y="8.25452" width="24" height="24" fill="#D9D9D9"/>
</mask>
<g mask="url(#mask0_2607_6942)">
<path d="M15.5 30.2545V21.1045C14.65 20.8712 13.9375 20.4045 13.3625 19.7045C12.7875 19.0045 12.5 18.1878 12.5 17.2545V10.2545H14.5V17.2545H15.5V10.2545H17.5V17.2545H18.5V10.2545H20.5V17.2545C20.5 18.1878 20.2125 19.0045 19.6375 19.7045C19.0625 20.4045 18.35 20.8712 17.5 21.1045V30.2545H15.5ZM25.5 30.2545V22.2545H22.5V15.2545C22.5 13.8712 22.9875 12.692 23.9625 11.717C24.9375 10.742 26.1167 10.2545 27.5 10.2545V30.2545H25.5Z" fill="#1C1B1F"/>
</g>
</svg>
