<svg width="41" height="41" viewBox="0 0 41 41" fill="none" xmlns="http://www.w3.org/2000/svg">
<path d="M15.5 16.2545C14.95 16.2545 14.4792 16.0587 14.0875 15.667C13.6958 15.2753 13.5 14.8045 13.5 14.2545V12.2545C13.5 11.7045 13.6958 11.2337 14.0875 10.842C14.4792 10.4503 14.95 10.2545 15.5 10.2545H25.5C26.05 10.2545 26.5208 10.4503 26.9125 10.842C27.3042 11.2337 27.5 11.7045 27.5 12.2545V14.2545C27.5 14.8045 27.3042 15.2753 26.9125 15.667C26.5208 16.0587 26.05 16.2545 25.5 16.2545H15.5ZM16 14.2545H25C25.1333 14.2545 25.25 14.2045 25.35 14.1045C25.45 14.0045 25.5 13.8879 25.5 13.7545V12.7545C25.5 12.6212 25.45 12.5045 25.35 12.4045C25.25 12.3045 25.1333 12.2545 25 12.2545H16C15.8667 12.2545 15.75 12.3045 15.65 12.4045C15.55 12.5045 15.5 12.6212 15.5 12.7545V13.7545C15.5 13.8879 15.55 14.0045 15.65 14.1045C15.75 14.2045 15.8667 14.2545 16 14.2545ZM12.5 30.2545C11.95 30.2545 11.4792 30.0587 11.0875 29.667C10.6958 29.2754 10.5 28.8045 10.5 28.2545V27.2545H30.5V28.2545C30.5 28.8045 30.3042 29.2754 29.9125 29.667C29.5208 30.0587 29.05 30.2545 28.5 30.2545H12.5ZM10.5 26.2545L13.975 18.4295C14.1417 18.0628 14.3875 17.7754 14.7125 17.567C15.0375 17.3587 15.4 17.2545 15.8 17.2545H25.2C25.6 17.2545 25.9625 17.3587 26.2875 17.567C26.6125 17.7754 26.8583 18.0628 27.025 18.4295L30.5 26.2545H10.5ZM17 24.2545H18C18.1333 24.2545 18.25 24.2045 18.35 24.1045C18.45 24.0045 18.5 23.8878 18.5 23.7545C18.5 23.6212 18.45 23.5045 18.35 23.4045C18.25 23.3045 18.1333 23.2545 18 23.2545H17C16.8667 23.2545 16.75 23.3045 16.65 23.4045C16.55 23.5045 16.5 23.6212 16.5 23.7545C16.5 23.8878 16.55 24.0045 16.65 24.1045C16.75 24.2045 16.8667 24.2545 17 24.2545ZM17 22.2545H18C18.1333 22.2545 18.25 22.2045 18.35 22.1045C18.45 22.0045 18.5 21.8878 18.5 21.7545C18.5 21.6212 18.45 21.5045 18.35 21.4045C18.25 21.3045 18.1333 21.2545 18 21.2545H17C16.8667 21.2545 16.75 21.3045 16.65 21.4045C16.55 21.5045 16.5 21.6212 16.5 21.7545C16.5 21.8878 16.55 22.0045 16.65 22.1045C16.75 22.2045 16.8667 22.2545 17 22.2545ZM17 20.2545H18C18.1333 20.2545 18.25 20.2045 18.35 20.1045C18.45 20.0045 18.5 19.8878 18.5 19.7545C18.5 19.6212 18.45 19.5045 18.35 19.4045C18.25 19.3045 18.1333 19.2545 18 19.2545H17C16.8667 19.2545 16.75 19.3045 16.65 19.4045C16.55 19.5045 16.5 19.6212 16.5 19.7545C16.5 19.8878 16.55 20.0045 16.65 20.1045C16.75 20.2045 16.8667 20.2545 17 20.2545ZM20 24.2545H21C21.1333 24.2545 21.25 24.2045 21.35 24.1045C21.45 24.0045 21.5 23.8878 21.5 23.7545C21.5 23.6212 21.45 23.5045 21.35 23.4045C21.25 23.3045 21.1333 23.2545 21 23.2545H20C19.8667 23.2545 19.75 23.3045 19.65 23.4045C19.55 23.5045 19.5 23.6212 19.5 23.7545C19.5 23.8878 19.55 24.0045 19.65 24.1045C19.75 24.2045 19.8667 24.2545 20 24.2545ZM20 22.2545H21C21.1333 22.2545 21.25 22.2045 21.35 22.1045C21.45 22.0045 21.5 21.8878 21.5 21.7545C21.5 21.6212 21.45 21.5045 21.35 21.4045C21.25 21.3045 21.1333 21.2545 21 21.2545H20C19.8667 21.2545 19.75 21.3045 19.65 21.4045C19.55 21.5045 19.5 21.6212 19.5 21.7545C19.5 21.8878 19.55 22.0045 19.65 22.1045C19.75 22.2045 19.8667 22.2545 20 22.2545ZM20 20.2545H21C21.1333 20.2545 21.25 20.2045 21.35 20.1045C21.45 20.0045 21.5 19.8878 21.5 19.7545C21.5 19.6212 21.45 19.5045 21.35 19.4045C21.25 19.3045 21.1333 19.2545 21 19.2545H20C19.8667 19.2545 19.75 19.3045 19.65 19.4045C19.55 19.5045 19.5 19.6212 19.5 19.7545C19.5 19.8878 19.55 20.0045 19.65 20.1045C19.75 20.2045 19.8667 20.2545 20 20.2545ZM23 24.2545H24C24.1333 24.2545 24.25 24.2045 24.35 24.1045C24.45 24.0045 24.5 23.8878 24.5 23.7545C24.5 23.6212 24.45 23.5045 24.35 23.4045C24.25 23.3045 24.1333 23.2545 24 23.2545H23C22.8667 23.2545 22.75 23.3045 22.65 23.4045C22.55 23.5045 22.5 23.6212 22.5 23.7545C22.5 23.8878 22.55 24.0045 22.65 24.1045C22.75 24.2045 22.8667 24.2545 23 24.2545ZM23 22.2545H24C24.1333 22.2545 24.25 22.2045 24.35 22.1045C24.45 22.0045 24.5 21.8878 24.5 21.7545C24.5 21.6212 24.45 21.5045 24.35 21.4045C24.25 21.3045 24.1333 21.2545 24 21.2545H23C22.8667 21.2545 22.75 21.3045 22.65 21.4045C22.55 21.5045 22.5 21.6212 22.5 21.7545C22.5 21.8878 22.55 22.0045 22.65 22.1045C22.75 22.2045 22.8667 22.2545 23 22.2545ZM23 20.2545H24C24.1333 20.2545 24.25 20.2045 24.35 20.1045C24.45 20.0045 24.5 19.8878 24.5 19.7545C24.5 19.6212 24.45 19.5045 24.35 19.4045C24.25 19.3045 24.1333 19.2545 24 19.2545H23C22.8667 19.2545 22.75 19.3045 22.65 19.4045C22.55 19.5045 22.5 19.6212 22.5 19.7545C22.5 19.8878 22.55 20.0045 22.65 20.1045C22.75 20.2045 22.8667 20.2545 23 20.2545Z" fill="#1C1B1F"/>
</svg>
