<svg width="16" height="16" viewBox="0 0 16 16" fill="none" xmlns="http://www.w3.org/2000/svg">
<path fill-rule="evenodd" clip-rule="evenodd" d="M12.7112 11.5326C14.908 8.75247 14.7231 4.7057 12.1562 2.13884C9.38999 -0.627375 4.90507 -0.627375 2.13885 2.13884C-0.62736 4.90505 -0.62736 9.38997 2.13885 12.1562C4.70571 14.723 8.75248 14.908 11.5326 12.7111L14.5132 15.6917C14.8387 16.0172 15.3663 16.0172 15.6917 15.6917C16.0172 15.3663 16.0172 14.8386 15.6917 14.5132L12.7112 11.5326ZM10.9777 3.31735C13.093 5.43269 13.093 8.86233 10.9777 10.9777C8.86235 13.093 5.4327 13.093 3.31737 10.9777C1.20203 8.86233 1.20203 5.43269 3.31737 3.31735C5.4327 1.20201 8.86235 1.20201 10.9777 3.31735Z" fill="#282828"/>
</svg>
