<svg width="21" height="20" viewBox="0 0 21 20" fill="none" xmlns="http://www.w3.org/2000/svg">
<path d="M6.5 20C5.95 20 5.47917 19.8042 5.0875 19.4125C4.69583 19.0208 4.5 18.55 4.5 18C4.5 17.45 4.69583 16.9792 5.0875 16.5875C5.47917 16.1958 5.95 16 6.5 16C7.05 16 7.52083 16.1958 7.9125 16.5875C8.30417 16.9792 8.5 17.45 8.5 18C8.5 18.55 8.30417 19.0208 7.9125 19.4125C7.52083 19.8042 7.05 20 6.5 20ZM16.5 20C15.95 20 15.4792 19.8042 15.0875 19.4125C14.6958 19.0208 14.5 18.55 14.5 18C14.5 17.45 14.6958 16.9792 15.0875 16.5875C15.4792 16.1958 15.95 16 16.5 16C17.05 16 17.5208 16.1958 17.9125 16.5875C18.3042 16.9792 18.5 17.45 18.5 18C18.5 18.55 18.3042 19.0208 17.9125 19.4125C17.5208 19.8042 17.05 20 16.5 20ZM5.65 4L8.05 9H15.05L17.8 4H5.65ZM4.7 2H19.45C19.8333 2 20.125 2.17083 20.325 2.5125C20.525 2.85417 20.5333 3.2 20.35 3.55L16.8 9.95C16.6167 10.2833 16.3708 10.5417 16.0625 10.725C15.7542 10.9083 15.4167 11 15.05 11H7.6L6.5 13H18.5V15H6.5C5.75 15 5.18333 14.6708 4.8 14.0125C4.41667 13.3542 4.4 12.7 4.75 12.05L6.1 9.6L2.5 2H0.5V0H3.75L4.7 2Z" fill="#1C1B1F"/>
</svg>
