<svg width="59" height="59" viewBox="0 0 59 59" fill="none" xmlns="http://www.w3.org/2000/svg">
<path d="M58.9928 29.4964C58.9928 45.7868 45.7868 58.9928 29.4964 58.9928C13.206 58.9928 0 45.7868 0 29.4964C0 13.206 13.206 0 29.4964 0C45.7868 0 58.9928 13.206 58.9928 29.4964ZM3.59194 29.4964C3.59194 43.803 15.1898 55.4009 29.4964 55.4009C43.803 55.4009 55.4009 43.803 55.4009 29.4964C55.4009 15.1898 43.803 3.59194 29.4964 3.59194C15.1898 3.59194 3.59194 15.1898 3.59194 29.4964Z" fill="#8B0A0A"/>
<path d="M11.7799 32.6259C11.1353 32.6259 10.5947 32.5319 10.1583 32.3439C9.72854 32.1558 9.40288 31.9108 9.18129 31.6086C8.95971 31.3064 8.84221 30.9841 8.82878 30.6417C8.82878 30.588 8.84892 30.541 8.88921 30.5007C8.9295 30.4537 8.97986 30.4302 9.04029 30.4302H10.118C10.2053 30.4302 10.2724 30.4503 10.3194 30.4906C10.3664 30.5242 10.4101 30.5678 10.4504 30.6215C10.4974 30.7357 10.5712 30.8465 10.6719 30.9539C10.7794 31.0614 10.9237 31.152 11.105 31.2259C11.2863 31.293 11.5113 31.3266 11.7799 31.3266C12.2163 31.3266 12.542 31.2561 12.7568 31.1151C12.9784 30.9741 13.0892 30.7827 13.0892 30.541C13.0892 30.3664 13.0288 30.2254 12.9079 30.118C12.7938 30.0105 12.6091 29.9132 12.354 29.8259C12.1055 29.7386 11.7731 29.6446 11.3568 29.5439C10.8532 29.4364 10.4235 29.2988 10.0676 29.1309C9.71847 28.9563 9.45324 28.7347 9.27194 28.4662C9.09736 28.1909 9.01007 27.8518 9.01007 27.4489C9.01007 27.046 9.12086 26.6901 9.34245 26.3813C9.56403 26.0657 9.87626 25.8206 10.2791 25.646C10.682 25.4647 11.1621 25.3741 11.7194 25.3741C12.1693 25.3741 12.5655 25.4345 12.9079 25.5554C13.2571 25.6762 13.5458 25.834 13.7741 26.0287C14.0091 26.2235 14.1871 26.4316 14.3079 26.6532C14.4288 26.8748 14.4926 27.0897 14.4993 27.2978C14.4993 27.3515 14.4791 27.4019 14.4388 27.4489C14.3986 27.4892 14.3482 27.5093 14.2878 27.5093H13.1597C13.0926 27.5093 13.0321 27.4959 12.9784 27.469C12.9247 27.4422 12.8811 27.3952 12.8475 27.328C12.8072 27.1534 12.6863 27.0024 12.4849 26.8748C12.2902 26.7405 12.035 26.6733 11.7194 26.6733C11.3904 26.6733 11.1285 26.7338 10.9338 26.8546C10.7458 26.9755 10.6518 27.1602 10.6518 27.4086C10.6518 27.5698 10.6988 27.7074 10.7928 27.8215C10.8935 27.929 11.058 28.0263 11.2863 28.1136C11.5213 28.1942 11.8302 28.2849 12.2129 28.3856C12.8038 28.5064 13.2839 28.6508 13.6532 28.8187C14.0225 28.9865 14.2945 29.2048 14.4691 29.4733C14.6436 29.7352 14.7309 30.0676 14.7309 30.4705C14.7309 30.9204 14.6034 31.3064 14.3482 31.6287C14.0998 31.951 13.754 32.1995 13.3108 32.3741C12.8743 32.5419 12.364 32.6259 11.7799 32.6259ZM17.897 32.6259C17.3397 32.6259 16.873 32.5352 16.497 32.3539C16.121 32.1659 15.8322 31.9007 15.6308 31.5582C15.4361 31.2158 15.3286 30.8163 15.3085 30.3597C15.3018 30.2254 15.2984 30.0743 15.2984 29.9064C15.2984 29.7319 15.3018 29.5808 15.3085 29.4532C15.3286 28.9899 15.4428 28.5904 15.6509 28.2546C15.8591 27.9122 16.1512 27.6503 16.5272 27.469C16.9032 27.281 17.3598 27.187 17.897 27.187C18.4274 27.187 18.8807 27.281 19.2567 27.469C19.6327 27.6503 19.9248 27.9122 20.133 28.2546C20.3411 28.5904 20.4553 28.9899 20.4754 29.4532C20.4888 29.5808 20.4955 29.7319 20.4955 29.9064C20.4955 30.0743 20.4888 30.2254 20.4754 30.3597C20.4553 30.8163 20.3445 31.2158 20.143 31.5582C19.9483 31.9007 19.6629 32.1659 19.2869 32.3539C18.9109 32.5352 18.4476 32.6259 17.897 32.6259ZM17.897 31.518C18.226 31.518 18.4744 31.4172 18.6423 31.2158C18.8102 31.0076 18.9008 30.7055 18.9143 30.3093C18.921 30.2086 18.9243 30.0743 18.9243 29.9064C18.9243 29.7386 18.921 29.6043 18.9143 29.5036C18.9008 29.1141 18.8102 28.8153 18.6423 28.6072C18.4744 28.399 18.226 28.2949 17.897 28.2949C17.568 28.2949 17.3162 28.399 17.1416 28.6072C16.9737 28.8153 16.8831 29.1141 16.8696 29.5036C16.8629 29.6043 16.8596 29.7386 16.8596 29.9064C16.8596 30.0743 16.8629 30.2086 16.8696 30.3093C16.8831 30.7055 16.9737 31.0076 17.1416 31.2158C17.3162 31.4172 17.568 31.518 17.897 31.518ZM21.5993 32.5251C21.5254 32.5251 21.465 32.5016 21.418 32.4546C21.371 32.4076 21.3475 32.3472 21.3475 32.2733V25.6259C21.3475 25.552 21.371 25.4916 21.418 25.4446C21.465 25.3976 21.5254 25.3741 21.5993 25.3741H22.6065C22.6736 25.3741 22.7307 25.3976 22.7777 25.4446C22.8247 25.4916 22.8482 25.552 22.8482 25.6259V32.2733C22.8482 32.3472 22.8247 32.4076 22.7777 32.4546C22.7307 32.5016 22.6736 32.5251 22.6065 32.5251H21.5993ZM25.8637 32.6259C25.5279 32.6259 25.2291 32.5721 24.9673 32.4647C24.7054 32.3506 24.4838 32.1894 24.3025 31.9813C24.1212 31.7664 23.9836 31.5146 23.8896 31.2259C23.7956 30.9304 23.7385 30.6048 23.7183 30.2489C23.7116 30.1213 23.7083 30.0072 23.7083 29.9064C23.7083 29.799 23.7116 29.6849 23.7183 29.564C23.7318 29.2148 23.7855 28.8959 23.8795 28.6072C23.9802 28.3184 24.1179 28.07 24.2924 27.8618C24.4737 27.647 24.6953 27.4825 24.9572 27.3683C25.2258 27.2474 25.5279 27.187 25.8637 27.187C26.2128 27.187 26.5116 27.2474 26.7601 27.3683C27.0085 27.4825 27.2133 27.6335 27.3745 27.8215V25.6259C27.3745 25.552 27.398 25.4916 27.445 25.4446C27.492 25.3976 27.5524 25.3741 27.6262 25.3741H28.6637C28.7308 25.3741 28.7879 25.3976 28.8349 25.4446C28.8819 25.4916 28.9054 25.552 28.9054 25.6259V32.2733C28.9054 32.3472 28.8819 32.4076 28.8349 32.4546C28.7879 32.5016 28.7308 32.5251 28.6637 32.5251H27.6968C27.6296 32.5251 27.5725 32.5016 27.5255 32.4546C27.4785 32.4076 27.455 32.3472 27.455 32.2733V31.9309C27.2872 32.1323 27.0757 32.3002 26.8205 32.4345C26.5653 32.5621 26.2464 32.6259 25.8637 32.6259ZM26.327 31.4172C26.5754 31.4172 26.7735 31.3602 26.9212 31.246C27.0757 31.1319 27.1864 30.9875 27.2536 30.8129C27.3274 30.6383 27.3677 30.4503 27.3745 30.2489C27.3879 30.1213 27.3946 29.9937 27.3946 29.8662C27.3946 29.7386 27.3879 29.6144 27.3745 29.4935C27.3677 29.3055 27.3274 29.1309 27.2536 28.9698C27.1797 28.8019 27.0656 28.6642 26.9111 28.5568C26.7634 28.4494 26.5687 28.3956 26.327 28.3956C26.0718 28.3956 25.8704 28.4527 25.7227 28.5669C25.5749 28.6743 25.4675 28.8187 25.4004 29C25.3399 29.1813 25.303 29.3793 25.2896 29.5942C25.2694 29.8024 25.2694 30.0105 25.2896 30.2187C25.303 30.4335 25.3399 30.6316 25.4004 30.8129C25.4675 30.9942 25.5749 31.1419 25.7227 31.2561C25.8704 31.3635 26.0718 31.4172 26.327 31.4172ZM34.9161 32.6259C34.305 32.6259 33.7779 32.5251 33.3348 32.3237C32.8916 32.1223 32.5458 31.8201 32.2973 31.4172C32.0489 31.0076 31.9146 30.494 31.8945 29.8762C31.8878 29.5875 31.8844 29.3021 31.8844 29.0201C31.8844 28.7314 31.8878 28.4393 31.8945 28.1439C31.9146 27.5395 32.0489 27.0326 32.2973 26.623C32.5525 26.2067 32.9017 25.8945 33.3448 25.6863C33.7947 25.4781 34.3185 25.3741 34.9161 25.3741C35.5069 25.3741 36.024 25.4781 36.4671 25.6863C36.917 25.8945 37.2695 26.2067 37.5247 26.623C37.7798 27.0326 37.9141 27.5395 37.9276 28.1439C37.941 28.4393 37.9477 28.7314 37.9477 29.0201C37.9477 29.3021 37.941 29.5875 37.9276 29.8762C37.9074 30.494 37.7731 31.0076 37.5247 31.4172C37.2762 31.8201 36.9304 32.1223 36.4873 32.3237C36.0441 32.5251 35.5204 32.6259 34.9161 32.6259ZM34.9161 31.3266C35.3055 31.3266 35.6244 31.2091 35.8729 30.9741C36.128 30.7323 36.2623 30.3496 36.2758 29.8259C36.2892 29.5304 36.2959 29.2551 36.2959 29C36.2959 28.7381 36.2892 28.4628 36.2758 28.1741C36.2691 27.8249 36.2053 27.5395 36.0844 27.318C35.9635 27.0964 35.8024 26.9352 35.6009 26.8345C35.4062 26.7271 35.1779 26.6733 34.9161 26.6733C34.6542 26.6733 34.4225 26.7271 34.2211 26.8345C34.0197 26.9352 33.8585 27.0964 33.7376 27.318C33.6235 27.5395 33.5597 27.8249 33.5463 28.1741C33.5396 28.4628 33.5362 28.7381 33.5362 29C33.5362 29.2551 33.5396 29.5304 33.5463 29.8259C33.5664 30.3496 33.7007 30.7323 33.9491 30.9741C34.1976 31.2091 34.5199 31.3266 34.9161 31.3266ZM40.8094 32.6259C40.42 32.6259 40.0741 32.5386 39.772 32.364C39.4765 32.1827 39.2449 31.9242 39.077 31.5885C38.9159 31.246 38.8353 30.8331 38.8353 30.3496V27.5395C38.8353 27.4657 38.8588 27.4052 38.9058 27.3582C38.9528 27.3112 39.0099 27.2877 39.077 27.2877H40.1447C40.2185 27.2877 40.2789 27.3112 40.3259 27.3582C40.373 27.4052 40.3965 27.4657 40.3965 27.5395V30.2892C40.3965 31.0412 40.7255 31.4172 41.3835 31.4172C41.6991 31.4172 41.9475 31.3199 42.1288 31.1251C42.3168 30.9237 42.4108 30.6451 42.4108 30.2892V27.5395C42.4108 27.4657 42.4343 27.4052 42.4813 27.3582C42.5283 27.3112 42.5888 27.2877 42.6626 27.2877H43.7303C43.7974 27.2877 43.8545 27.3112 43.9015 27.3582C43.9485 27.4052 43.972 27.4657 43.972 27.5395V32.2733C43.972 32.3472 43.9485 32.4076 43.9015 32.4546C43.8545 32.5016 43.7974 32.5251 43.7303 32.5251H42.7432C42.6694 32.5251 42.6089 32.5016 42.5619 32.4546C42.5149 32.4076 42.4914 32.3472 42.4914 32.2733V31.8805C42.3168 32.1223 42.0919 32.3069 41.8166 32.4345C41.5413 32.5621 41.2056 32.6259 40.8094 32.6259ZM47.5562 32.5251C47.1399 32.5251 46.784 32.458 46.4886 32.3237C46.1931 32.1827 45.9682 31.9678 45.8137 31.6791C45.666 31.3904 45.5922 31.0278 45.5922 30.5913V28.4762H44.8065C44.7327 28.4762 44.6723 28.4527 44.6253 28.4057C44.5782 28.3587 44.5547 28.2983 44.5547 28.2244V27.5395C44.5547 27.4657 44.5782 27.4052 44.6253 27.3582C44.6723 27.3112 44.7327 27.2877 44.8065 27.2877H45.5922V25.6259C45.5922 25.552 45.6157 25.4916 45.6627 25.4446C45.7164 25.3976 45.7768 25.3741 45.844 25.3741H46.831C46.9049 25.3741 46.9653 25.3976 47.0123 25.4446C47.0593 25.4916 47.0828 25.552 47.0828 25.6259V27.2877H48.3418C48.4089 27.2877 48.466 27.3112 48.513 27.3582C48.56 27.4052 48.5835 27.4657 48.5835 27.5395V28.2244C48.5835 28.2983 48.56 28.3587 48.513 28.4057C48.466 28.4527 48.4089 28.4762 48.3418 28.4762H47.0828V30.4705C47.0828 30.7256 47.1264 30.9271 47.2137 31.0748C47.3077 31.2158 47.4689 31.2863 47.6972 31.2863H48.4324C48.4996 31.2863 48.5567 31.3098 48.6037 31.3568C48.6507 31.4038 48.6742 31.4609 48.6742 31.528V32.2733C48.6742 32.3472 48.6507 32.4076 48.6037 32.4546C48.5567 32.5016 48.4996 32.5251 48.4324 32.5251H47.5562Z" fill="#C30E0E"/>
</svg>
