<svg width="82" height="76" viewBox="0 0 82 76" fill="none" xmlns="http://www.w3.org/2000/svg">
<path d="M37.2081 30.0814C37.2081 27.9873 38.9057 26.2897 40.9998 26.2897C43.0939 26.2897 44.7915 27.9873 44.7915 30.0814V49.0397C44.7915 51.1338 43.0939 52.8314 40.9998 52.8314C38.9057 52.8314 37.2081 51.1338 37.2081 49.0397V30.0814Z" fill="#8B8B8B"/>
<path d="M44.7915 60.4147C44.7915 62.5088 43.0939 64.2064 40.9998 64.2064C38.9057 64.2064 37.2081 62.5088 37.2081 60.4147C37.2081 58.3206 38.9057 56.6231 40.9998 56.6231C43.0939 56.6231 44.7915 58.3206 44.7915 60.4147Z" fill="#8B8B8B"/>
<path fill-rule="evenodd" clip-rule="evenodd" d="M34.3425 4.37029C37.2167 -0.89909 44.783 -0.899085 47.6572 4.3703L80.3828 64.3671C83.1391 69.4205 79.4816 75.5818 73.7254 75.5818H8.27428C2.51808 75.5818 -1.13946 69.4205 1.61691 64.3671L34.3425 4.37029ZM40.9998 8.00159L73.7254 67.9984L8.27428 67.9984L40.9998 8.00159Z" fill="#8B8B8B"/>
</svg>
