<svg width="21" height="21" viewBox="0 0 21 21" fill="none" xmlns="http://www.w3.org/2000/svg">
<path d="M17.5045 2.91745C15.6339 1.04245 13.1429 0.0112 10.4955 0.0112C5.03125 0.0112 0.584821 4.45763 0.584821 9.92191C0.584821 11.6674 1.04018 13.3728 1.90625 14.8773L0.5 20.0112L5.75446 18.6317C7.20089 19.4219 8.83036 19.8371 10.4911 19.8371H10.4955C15.9554 19.8371 20.5 15.3907 20.5 9.92638C20.5 7.27906 19.375 4.79245 17.5045 2.91745ZM10.4955 18.1674C9.01339 18.1674 7.5625 17.7701 6.29911 17.0201L6 16.8416L2.88393 17.6585L3.71429 14.6183L3.51786 14.3058C2.69196 12.9933 2.25893 11.4799 2.25893 9.92191C2.25893 5.38174 5.95536 1.68531 10.5 1.68531C12.7009 1.68531 14.7679 2.54245 16.3214 4.10049C17.875 5.65852 18.8304 7.72549 18.8259 9.92638C18.8259 14.471 15.0357 18.1674 10.4955 18.1674ZM15.0134 11.9978C14.7679 11.8728 13.5491 11.2746 13.3214 11.1942C13.0938 11.1094 12.9286 11.0692 12.7634 11.3192C12.5982 11.5692 12.125 12.1228 11.9777 12.2924C11.8348 12.4576 11.6875 12.4799 11.442 12.3549C9.98661 11.6273 9.03125 11.0558 8.07143 9.40852C7.81696 8.97102 8.32589 9.00227 8.79911 8.05584C8.87946 7.89066 8.83929 7.74781 8.77679 7.62281C8.71429 7.49781 8.21875 6.27906 8.01339 5.78352C7.8125 5.30138 7.60714 5.36834 7.45536 5.35941C7.3125 5.35049 7.14732 5.35049 6.98214 5.35049C6.81696 5.35049 6.54911 5.41299 6.32143 5.65852C6.09375 5.90852 5.45536 6.50674 5.45536 7.72549C5.45536 8.94424 6.34375 10.1228 6.46429 10.288C6.58929 10.4532 8.20982 12.9532 10.6964 14.0291C12.2679 14.7076 12.8839 14.7657 13.6696 14.6496C14.1473 14.5782 15.1339 14.0514 15.3393 13.471C15.5446 12.8907 15.5446 12.3951 15.4821 12.2924C15.4241 12.1808 15.2589 12.1183 15.0134 11.9978Z" fill="black"/>
</svg>
